<?xml version="1.0" encoding="utf-8"?>
<!-- Generator: Adobe Illustrator 26.2.1, SVG Export Plug-In . SVG Version: 6.00 Build 0)  -->
<svg version="1.1" id="Capa_1" xmlns="http://www.w3.org/2000/svg" xmlns:xlink="http://www.w3.org/1999/xlink" x="0px" y="0px"
	 viewBox="0 0 188.6 38.5" style="enable-background:new 0 0 188.6 38.5;" xml:space="preserve">
<path d="M34.4,9.6c-7.4,0-11.8,5-11.8,11.1s4.5,11.1,11.8,11.1s11.8-5,11.8-11.1S41.8,9.6,34.4,9.6z M34.4,29.5
	c-4.8,0-6.6-4.1-6.6-8.9s1.8-8.9,6.6-8.9s6.7,4.1,6.7,8.9S39.5,29.5,34.4,29.5z"/>
<path d="M58.9,18.4c-4.8-1.5-5.3-3.1-4.9-4.7c0.5-1.6,2.6-2.1,4.3-1.8c1.7,0.2,4.5,3.1,4.5,3.1s0.6,0.2,0.6-0.1v-4l-0.2-0.2
	c-2-0.7-4.2-1-6.4-1.1c-5.3,0-7.3,3.7-7.3,6s0.8,5.3,6.8,7c6,1.8,4.9,4.9,3.7,5.8c-1.1,0.9-5.4,1.2-7.6-0.8
	c-0.8-0.8-1.5-1.6-2.1-2.5c-0.1-0.1-0.3-0.1-0.4,0c-0.1,0-0.1,0.1-0.1,0.2v4.5c0,0.1,0,0.2,0.1,0.2c2.4,1.2,5,1.8,7.7,1.8
	c4.4,0,7.4-2.4,7.8-6C65.8,22.3,64.7,20.1,58.9,18.4z"/>
<path d="M21.4,25.2L18.5,29h-6.9c-0.1,0-0.2-0.1-0.2-0.2l0,0V12.7l2.1-2.1c0.1,0,0.1-0.1,0.1-0.2c0-0.1-0.1-0.1-0.2-0.1l0,0H4.9
	c-0.1,0-0.2,0.2-0.2,0.3l0,0l2.2,2.1v16.1l0,0L4.6,31c-0.1,0-0.1,0.1-0.1,0.2s0.1,0.1,0.2,0.1h17v-6C21.6,25.2,21.5,25.1,21.4,25.2
	L21.4,25.2z"/>
<path d="M179.2,18.4c-4.8-1.5-5.3-3.1-4.9-4.7c0.4-1.6,2.7-2.1,4.3-1.8s4.5,3.1,4.5,3.1s0.6,0.2,0.6-0.1v-4l-0.2-0.2
	c-2.1-0.7-4.2-1.1-6.4-1.1c-5.3,0-7.3,3.7-7.3,6s0.7,5.3,6.8,7c6.1,1.8,4.8,4.9,3.7,5.8s-5.4,1.2-7.6-0.8c-0.8-0.8-1.5-1.6-2.1-2.5
	c-0.2-0.2-0.6-0.2-0.6,0.2v4.5c0,0.1,0,0.1,0.1,0.2c2.4,1.2,5,1.8,7.7,1.8c4.4,0,7.4-2.4,7.8-6S185.1,20.1,179.2,18.4z"/>
<path d="M134.5,10.3h-9.8c-0.2,0-0.2,0.2-0.1,0.3l2.1,2.1v1.8l0,0v14.4c0,0,0,0.1-0.1,0.1l0,0l-2.1,2.1c-0.1,0-0.1,0.1-0.1,0.2
	s0.1,0.1,0.2,0.1h9.8c7.3,0,11.8-4.6,11.8-10.5S141.8,10.3,134.5,10.3z M134.5,29.1h-3c-0.1,0-0.2-0.1-0.2-0.2V12.7
	c0-0.1,0.2-0.2,0.2-0.2h3c4.7,0,7,3.7,7,8.3S139.5,29.1,134.5,29.1z"/>
<path d="M94,28.8C94,28.7,94,28.7,94,28.8l-8-18.4h-2.1c-0.1,0-0.1,0.1-0.2,0.2L75.9,29h-0.1l-2,2c-0.2,0.1-0.1,0.3,0.2,0.3h6.6
	c0.2,0,0.3-0.2,0.2-0.3l-2.1-1.9c0-0.1-0.1-0.2,0-0.2l1.4-3.4c0-0.1,0.1-0.1,0.2-0.1h7.6l1.5,3.7c0,0.1,0,0.1-0.1,0.2L87.2,31
	c0,0.1,0,0.3,0.1,0.3l0,0h8.9c0.1,0,0.2-0.2,0.2-0.3l0,0L94,28.8z M86.4,23.4h-5c-0.1,0-0.2-0.2-0.2-0.3l0,0l2.4-6
	c0.1-0.1,0.2-0.1,0.3-0.1c0,0,0,0,0.1,0.1l2.5,6C86.6,23.2,86.5,23.4,86.4,23.4z"/>
<path d="M120.9,10.3H114c-0.1,0-0.2,0.1-0.2,0.2c0,0.1,0,0.1,0.1,0.1l2.1,2.1c0.1,0,0.1,0.1,0.1,0.2v10.3c0,0.2-0.2,0.2-0.4,0.1
	l-9.9-12.9h-7.7c-0.1,0-0.2,0.1-0.2,0.2c0,0.1,0,0.1,0.1,0.1l2.1,2.1c0.1,0,0.1,0.1,0.1,0.2v15.8c0,0,0,0.1-0.1,0.1L97.9,31
	c-0.2,0.1-0.1,0.3,0.2,0.3h6.9c0.1,0,0.2-0.2,0.2-0.3l0,0l-2.2-2.1l0,0V14.5c0-0.1,0.2-0.2,0.3-0.2l0,0l13,16.9h2.4
	c0.1,0,0.2-0.1,0.2-0.2l0,0V12.7l2.2-2.1C121.2,10.5,121.1,10.3,120.9,10.3z"/>
<path d="M165.7,25.5l-2.4,3.5h-7.9c-0.1,0-0.2-0.2-0.2-0.2v-6.9l0.2-0.2h5l2.1,2.1c0.2,0.1,0.3,0,0.3-0.2v-6.5
	c0-0.2-0.2-0.2-0.3-0.2l-2.4,2.3h-4.7l-0.2-0.2v-6.4c0-0.2,0.1-0.2,0.2-0.2h7.6l2.2,2.3c0.2,0.2,0.3,0,0.3-0.2v-4.2
	c0-0.1-0.1-0.2-0.2-0.2h-16.5c-0.2,0-0.3,0.2-0.2,0.3l2,2.1v16.1l0,0l-2.2,2.1c0,0.1,0,0.3,0.1,0.3l0,0h17.3c0.1,0,0.2-0.1,0.2-0.2
	v-5.3C166,25.4,165.9,25.3,165.7,25.5z"/>
</svg>
