<?xml version="1.0" encoding="UTF-8"?><svg xmlns="http://www.w3.org/2000/svg" viewBox="0 0 50.88 102.44"><defs><style>.d{fill:#fff;}</style></defs><g id="a"/><g id="b"><g id="c"><path class="d" d="M2.64,102.44c-.92-.24-.68-.82-.49-1.47,6.92-23.97,13.83-47.94,20.74-71.91,.57-1.99,1.14-3.98,1.76-6.14H.14c-.47-1.24,.33-1.08,.94-1.08,6.32,0,12.64,0,18.95,0,1.28,0,2.56-.04,3.84,.02,.8,.04,1.17-.18,1.41-1.02,1.85-6.57,3.77-13.12,5.67-19.68,.07-.23,.09-.5,.22-.68,.16-.2,.42-.32,.63-.48,.11,.25,.37,.54,.32,.75-.31,1.24-.69,2.46-1.05,3.68-1.59,5.52-3.18,11.05-4.77,16.57-.06,.22-.09,.46-.15,.8h24.73v.96c-.52,.04-1.03,.11-1.55,.11-7.36,0-14.72,.03-22.07-.02-1.15,0-1.62,.31-1.95,1.45-7.4,25.82-14.86,51.63-22.3,77.44-.07,.23-.09,.46-.14,.7h-.24Z"/></g></g></svg>