<?xml version="1.0" encoding="UTF-8"?><svg xmlns="http://www.w3.org/2000/svg" viewBox="0 0 95.6 95.6"><defs><style>.d{fill:#99f;}.e{fill:none;stroke:#99f;stroke-miterlimit:10;stroke-width:2px;}</style></defs><g id="a"/><g id="b"><g id="c"><g><circle class="e" cx="47.8" cy="47.8" r="46.8"/><g><path class="d" d="M39.75,43.6c-.69,0-1.26-.57-1.26-1.26s.57-1.26,1.26-1.26c1.84,0,3.22-1.49,3.22-3.22s-1.49-3.22-3.22-3.22c-1.38,0-2.64,.92-3.1,2.18-.23,.69-1.03,1.03-1.61,.81-.69-.23-1.03-1.03-.81-1.61,.81-2.3,3.1-3.91,5.52-3.91,3.22,0,5.86,2.64,5.86,5.86,0,3.22-2.64,5.63-5.86,5.63h0Z"/><path class="d" d="M39.75,52.68c-2.41,0-4.71-1.49-5.52-3.91-.23-.69,.11-1.38,.81-1.61,.69-.23,1.38,.11,1.61,.81,.46,1.26,1.72,2.18,3.1,2.18,1.84,0,3.22-1.49,3.22-3.22s-1.49-3.22-3.22-3.22c-.69,0-1.26-.57-1.26-1.26s.57-1.26,1.26-1.26c3.22,0,5.86,2.64,5.86,5.86,0,3.22-2.64,5.63-5.86,5.63h0Z"/><path class="d" d="M54.35,52.68h-5.4V31.88h5.4c3.91,0,7.13,3.22,7.13,7.13v6.55c0,3.91-3.22,7.13-7.13,7.13Zm-2.87-2.53h2.76c2.53,0,4.6-2.07,4.6-4.6v-6.55c0-2.53-2.07-4.6-4.6-4.6h-2.76v15.75Z"/><path class="d" d="M66.54,61.53H29.06c-3.1,0-5.52-2.53-5.52-5.52v-9.2c0-.69,.57-1.26,1.26-1.26s1.26,.57,1.26,1.26v9.2c0,1.61,1.38,2.99,2.99,2.99h37.36c1.61,0,2.99-1.38,2.99-2.99v-9.2c0-.69,.57-1.26,1.26-1.26s1.26,.57,1.26,1.26v9.2c.12,2.99-2.41,5.52-5.4,5.52h0Z"/><path class="d" d="M47.8,83.03l-9.08-7.47v-15.29c0-.69,.57-1.26,1.26-1.26s1.26,.57,1.26,1.26v14.14l6.55,5.29,6.55-5.29v-14.14c0-.69,.57-1.26,1.26-1.26s1.26,.57,1.26,1.26v15.29l-9.08,7.47Z"/><path class="d" d="M24.81,34.41c-.69,0-1.26-.57-1.26-1.26v-8.51h8.51c.69,0,1.26,.57,1.26,1.26s-.57,1.26-1.26,1.26h-5.98v5.98c.11,.69-.57,1.26-1.26,1.26h0Z"/><path class="d" d="M70.79,34.41c-.69,0-1.26-.57-1.26-1.26v-5.98h-5.98c-.69,0-1.26-.57-1.26-1.26s.57-1.26,1.26-1.26h8.51v8.51c0,.69-.57,1.26-1.26,1.26h0Z"/></g></g></g></g></svg>