<?xml version="1.0" encoding="UTF-8"?><svg xmlns="http://www.w3.org/2000/svg" viewBox="0 0 95.6 95.6"><defs><style>.d{fill:#99f;}.e{fill:none;stroke:#99f;stroke-miterlimit:10;stroke-width:2px;}</style></defs><g id="a"/><g id="b"><g id="c"><g><circle class="e" cx="47.8" cy="47.8" r="46.8"/><g><path class="d" d="M72.02,56.96c-.77,0-1.39,.62-1.39,1.39v12.21H24.97v-12.23c0-.77-.62-1.39-1.39-1.39s-1.39,.62-1.39,1.39v13.6c0,.77,.62,1.39,1.39,1.39h48.44c.77,0,1.39-.62,1.39-1.39v-13.6c0-.76-.63-1.37-1.39-1.37h0Z"/><path class="d" d="M47.8,22.28c-.76,0-1.38,.62-1.39,1.38V63.51l-9.07-9.06h0c-.26-.26-.61-.41-.98-.41s-.72,.15-.98,.41c-.54,.54-.54,1.42,0,1.96l11.43,11.43c.13,.13,.28,.23,.45,.31,.33,.12,.69,.12,1.02,0,.17-.07,.32-.17,.45-.31l11.47-11.43c.54-.54,.54-1.42,0-1.96-.26-.26-.61-.41-.98-.41s-.72,.15-.98,.41l-9.07,9.06V23.66c0-.76-.62-1.38-1.39-1.38h0Z"/></g></g></g></g></svg>