<?xml version="1.0" encoding="UTF-8"?><svg id="Capa_2" xmlns="http://www.w3.org/2000/svg" viewBox="0 0 122.35 122.35"><defs><style>.cls-1{fill:#99f;}.cls-2{fill:#f9f5e9;}</style></defs><g id="Layer_1"><g><path class="cls-1" d="M61.18,0c16.89,0,32.19,6.85,43.26,17.92,11.07,11.07,17.92,26.36,17.92,43.26s-6.85,32.19-17.92,43.26c-11.07,11.07-26.36,17.92-43.26,17.92s-32.19-6.85-43.26-17.92C6.85,93.37,0,78.07,0,61.18S6.85,28.99,17.92,17.92C28.99,6.85,44.28,0,61.18,0h0Z"/><path class="cls-2" d="M46.07,32.01l46.3,26.55c1.44,.82,1.94,2.67,1.12,4.1-.29,.5-.69,.88-1.15,1.14l-46.38,26.61c-1.44,.82-3.28,.33-4.11-1.12-.27-.47-.4-.99-.4-1.5V34.55c0-1.67,1.34-3.01,3.01-3.01,.6,0,1.15,.17,1.62,.47h0Z"/></g></g></svg>