<?xml version="1.0" encoding="UTF-8"?><svg xmlns="http://www.w3.org/2000/svg" viewBox="0 0 95.6 95.6"><defs><style>.d{fill:#99f;}.e{fill:none;stroke:#99f;stroke-miterlimit:10;stroke-width:2px;}</style></defs><g id="a"/><g id="b"><g id="c"><g><circle class="e" cx="47.8" cy="47.8" r="46.8"/><path class="d" d="M53.52,51.42l-16.09-26.21h-2.43l16.72,27.25,1.81-1.04Z"/><path class="d" d="M49.92,53.49l-17.38-28.29h-2.4l18.01,29.31,1.77-1.02Z"/><path class="d" d="M71.28,25.21v-3.81h-2.06v3.81h-29.39l15.44,25.2,1.78-1.03-13.56-22.11h25.73v43.25h-2.65c.45,.67,.83,1.36,1.18,2.06h3.53V27.27h3.81v-2.06h-3.81Z"/><path class="d" d="M27.35,70.51V28.56l17.22,28.03,1.76-1.02L27.73,25.21h-2.43v45.31h-3.81v2.06h3.81v3.81h2.06v-3.81h30.48c-.17-.69-.18-1.41-.51-2.06H27.35Z"/><path class="d" d="M48.79,55.4l1.81,3.63-2.2-3.4-3.35,2.03,3.78,6.22,12.45-7.57-3.78-6.22-2.64,1.61,2.33,4.88-2.83-4.57-5.57,3.39Z"/><path class="d" d="M63.73,69.63c-1.53-1.18-5.17-4.35-2.65-5.89,1.89-1.15,2.5-3.64,1.35-5.54l-.56-.92-12.45,7.57,.56,.92c1.15,1.89,3.64,2.5,5.54,1.35,2.52-1.53,3.66,3.17,4,5.06,1.56,8.6,11.12,2.79,4.2-2.56h0Zm-.07,4.62c-.53,.32-1.21,.15-1.53-.37s-.15-1.21,.37-1.53,1.21-.15,1.53,.37c.32,.53,.15,1.21-.37,1.53Z"/></g></g></g></svg>