<?xml version="1.0" encoding="UTF-8"?><svg xmlns="http://www.w3.org/2000/svg" viewBox="0 0 95.6 95.6"><defs><style>.d{fill:#99f;fill-rule:evenodd;}.e{fill:none;stroke:#99f;stroke-miterlimit:10;stroke-width:2px;}</style></defs><g id="a"/><g id="b"><g id="c"><g><circle class="e" cx="47.8" cy="47.8" r="46.8"/><path class="d" d="M65.12,38.73c-.23-.78-.51-1.53-.85-2.26-1.82-3.95-5.18-7-9.44-8.6-3.68-1.37-7.57-1.72-11.24-.99h0c-.29,.06-.59,.12-.88,.19,.34,.24,.69,.49,1.06,.75,.2,.13,.38,.27,.59,.4,2.22,1.5,4.91,3.14,8.09,4.85,4.3,2.32,8.02,3.97,10.98,5.06,.59,.22,1.16,.42,1.69,.59h0Zm7.61,2.14c-.4,.74-1.23,1.11-2.53,1.11-.19,0-.38-.01-.59-.02-1.22-.09-2.77-.44-4.7-1.06-3.81-1.22-8.59-3.34-13.46-5.96-4.87-2.62-9.27-5.45-12.39-7.96-1.13-.91-2.04-1.74-2.74-2.49-1.59-1.71-2.08-3.03-1.53-4.05,.67-1.24,2.48-1.44,5.71-.63h0c.92,.23,1.92,.53,3,.9,.78,.27,.97,1.27,.35,1.81-.29,.24-.68,.31-1.04,.19-1.02-.35-1.97-.64-2.82-.85-2.09-.52-2.97-.44-3.27-.37,.19,.65,1.42,2,3.64,3.8,.91-.31,1.83-.55,2.77-.74,4.11-.81,8.45-.43,12.54,1.1,4.85,1.81,8.67,5.29,10.76,9.8,.14,.26,.97,1.93,1.43,4.08,.59,.14,1.11,.24,1.54,.3,.65,.09,1.13,.09,1.4,0-.06-.16-.69-.93-1.19-1.52-.35-.41-.33-1.02,.05-1.41,.44-.46,1.19-.43,1.59,.07,.86,1.08,2.05,2.86,1.49,3.89h0Zm-9.76,7.26c.54-2.26-.22-4.64-1.89-5.93-1.54-1.19-3.6-1.25-5.64-.17l1.12,2.1c.84-.45,2.06-.82,3.06-.05,.93,.71,1.35,2.15,1.03,3.5-.51,2.13-2.68,5.15-5.74,4.9l-.2,2.37c.19,.02,.38,.02,.57,.02,3.82,0,6.88-3.33,7.69-6.74h0Zm-27.67,.86c1.26,0,2.28-1.38,2.28-3.09s-1.02-3.09-2.28-3.09c-2.42,0-2.58,6.18,0,6.17h0Zm6.51-7.54c-3.35-2.12-7.21-2.22-8.94-2.14v2.12c1.38-.07,4.81-.04,7.71,1.74l1.23-1.72Zm24.03,1.48c.02,.33,.02,.65,.02,.98,0,6.19-2.31,10.02-4.55,13.72-2.01,3.32-4.08,6.75-4.08,11.56v2.34h2.38v-2.34c0-4.15,1.73-7.02,3.74-10.34,2.29-3.79,4.89-8.09,4.89-14.94,0-.17,0-.34-.01-.52-.7-.08-1.5-.24-2.39-.47h0Zm-30.06,11.52c-1.37,0-2.5,.83-3.42,1.55,.16,.52,.24,1.08,.24,1.65v1.31c2.33,.38,4.3,.09,6-.87l1.18,2.07c-1.59,.9-3.33,1.35-5.26,1.35-.62,0-1.26-.05-1.92-.14v5.02c0,1.67,1.36,3.04,3.04,3.04h7.19c4.13,0,7.49-3.35,7.49-7.48v-7.99h2.38v7.99c0,5.43-4.43,9.85-9.87,9.85h-7.19c-2.99,0-5.42-2.43-5.42-5.41v-8.73c0-1.88-1.53-3.41-3.41-3.41h-2.17c-.62,0-1.2-.3-1.56-.81-.35-.5-.44-1.13-.24-1.71,.36-1.14,.7-2.31,1.06-3.56,2.25-7.69,4.8-16.41,12.03-20.82,.17-.1,.35-.2,.52-.3,.57,.53,1.22,1.08,1.94,1.65-.41,.21-.82,.44-1.22,.68-6.45,3.93-8.86,12.18-10.99,19.46-.31,1.05-.6,2.05-.9,3.03h1.52c1.75,0,3.33,.78,4.39,2.02,1.09-.83,2.61-1.82,4.58-1.82,.22,0,.45,0,.71,0,2.74,.03,7.82,.08,10.96-3.02,1.97-1.95,2.97-4.94,2.97-8.91h2.38c0,4.62-1.24,8.18-3.68,10.59-3.84,3.8-9.58,3.74-12.66,3.71-.25,0-.47,0-.68,0h0Z"/></g></g></g></svg>